<svg width="48" height="48" viewBox="0 0 48 48" fill="none" xmlns="http://www.w3.org/2000/svg">
<path d="M20.9772 30.8681C20.6125 30.8003 20.2656 30.7063 19.9298 30.5862C19.201 30.3255 18.8365 30.1951 18.6967 30.1622C17.4065 29.8588 16.8712 30.7431 15.7592 30.9284C15.213 31.0194 14.727 30.5722 14.7724 30.0203C14.812 29.5378 15.1457 29.0814 15.2789 28.6181C15.5557 27.6548 15.1801 26.9244 14.7832 26.0677C14.2806 24.9828 14 23.7742 14 22.5C14 17.8056 17.8056 14 22.5 14C25.5419 14 28.2105 15.5979 29.7124 18" stroke="#E8E8E8" stroke-width="1.5" stroke-linecap="round" stroke-linejoin="round"/>
<path d="M28 34C24.6863 34 22 31.3137 22 28C22 24.6863 24.6863 22 28 22C31.3137 22 34 24.6863 34 28C34 28.8994 33.8019 29.7526 33.4472 30.5184C33.167 31.1231 32.9019 31.6387 33.0973 32.3186C33.1913 32.6457 33.4268 32.9679 33.4548 33.3085C33.4868 33.698 33.1437 34.0137 32.7582 33.9494C31.9733 33.8186 31.5954 33.1945 30.6847 33.4086C30.586 33.4319 30.3287 33.5239 29.8142 33.7079C29.2699 33.9026 28.6836 34 28 34Z" stroke="#A1A1A1" stroke-width="1.5" stroke-linecap="round" stroke-linejoin="round"/>
</svg>
