<svg width="48" height="48" viewBox="0 0 48 48" fill="none" xmlns="http://www.w3.org/2000/svg">
<path d="M14 22V18.8C14 17.1198 14 16.2798 14.327 15.638C14.6146 15.0735 15.0735 14.6146 15.638 14.327C16.2798 14 17.1198 14 18.8 14H19.7639C20.1327 14 20.3172 14 20.4873 14.0195C21.375 14.1212 22.1711 14.6132 22.6591 15.3617C22.7526 15.5052 22.8351 15.6701 23 16C23.1649 16.3299 23.2474 16.4948 23.3409 16.6383C23.8289 17.3868 24.625 17.8788 25.5127 17.9805C25.6829 18 25.8673 18 26.2361 18H27" stroke="#A1A1A1" stroke-width="1.5" stroke-linecap="round" stroke-linejoin="round"/>
<path d="M24 33.9995H18.8C17.1198 33.9995 16.2798 33.9995 15.638 33.6725C15.0735 33.3849 14.6146 32.926 14.327 32.3615C14 31.7197 14 30.8797 14 29.1995V21.9998M32 21.9998C32 21.0696 32 20.6045 31.8977 20.2229C31.6203 19.1877 30.8118 18.3792 29.7766 18.1018C29.3951 17.9995 28.93 17.9995 27.9998 17.9995H27.5001H27.0001M18 34L19.3315 26.0109C19.569 24.5859 19.6878 23.8735 20.0433 23.3388C20.3567 22.8675 20.7971 22.4945 21.3135 22.2628C21.8993 22 22.6216 22 24.0662 22H31.2225C32.5221 22 33.172 22 33.6342 22.2651C34.0398 22.4978 34.3511 22.8653 34.5139 23.3036C34.6995 23.8032 34.5926 24.4441 34.379 25.7261L33.6685 29.9891C33.431 31.4141 33.3122 32.1265 32.9567 32.6612C32.6433 33.1325 32.2029 33.5055 31.6865 33.7372C31.1007 34 30.3784 34 28.9338 34H18Z" stroke="#E8E8E8" stroke-width="1.5" stroke-linecap="round" stroke-linejoin="round"/>
</svg>
