<svg width="48" height="48" viewBox="0 0 48 48" fill="none" xmlns="http://www.w3.org/2000/svg">
<g clip-path="url(#clip0_2432_1725)">
<mask id="mask0_2432_1725" style="mask-type:luminance" maskUnits="userSpaceOnUse" x="12" y="12" width="24" height="24">
<path d="M36 12H12V36H36V12Z" fill="white"/>
</mask>
<g mask="url(#mask0_2432_1725)">
<path d="M29.9971 15.8372C27.8568 14.1249 26.7866 13.2688 25.5998 12.9405C24.5529 12.6509 23.4471 12.6509 22.4002 12.9405C21.2134 13.2688 20.1432 14.1249 18.0029 15.8372L16.8529 16.7572C15.5298 17.8157 14.8683 18.3449 14.3921 19.0018C13.9702 19.5837 13.6564 20.2368 13.4655 20.9297C13.25 21.7119 13.25 22.5592 13.25 24.2535V29.5834C13.25 32.4368 15.5632 34.75 18.4167 34.75C19.8434 34.75 21 33.5934 21 32.1667V28C21 26.3431 22.3431 25 24 25C25.6569 25 27 26.3431 27 28V32.1667C27 33.5934 28.1566 34.75 29.5833 34.75C32.4368 34.75 34.75 32.4368 34.75 29.5834V24.2535C34.75 22.5592 34.75 21.7119 34.5345 20.9297C34.3436 20.2368 34.0298 19.5837 33.6079 19.0018C33.1317 18.3449 32.4702 17.8157 31.1471 16.7572L29.9971 15.8372Z" fill="#E8E8E8"/>
<path d="M18.0029 15.8372L17 16.6395L18.6201 18.1116C20.52 19.8379 21.47 20.7011 22.5462 21.0282C23.494 21.3162 24.506 21.3162 25.4538 21.0282C26.53 20.7011 27.48 19.8379 29.3799 18.1116L31 16.6395L29.9971 15.8372C27.8568 14.1249 26.7866 13.2688 25.5998 12.9405C24.5529 12.6509 23.4471 12.6509 22.4002 12.9405C21.2134 13.2688 20.1432 14.1249 18.0029 15.8372Z" fill="#A1A1A1"/>
</g>
</g>
<defs>
<clipPath id="clip0_2432_1725">
<rect width="24" height="24" fill="white" transform="translate(12 12)"/>
</clipPath>
</defs>
</svg>
