<svg width="16" height="16" viewBox="0 0 16 16" fill="none" xmlns="http://www.w3.org/2000/svg">
<g clip-path="url(#clip0_2562_1433)">
<path d="M10.7775 5.33331C11.9157 5.33331 12.4849 5.33331 12.939 5.50423C13.6577 5.77473 14.2249 6.34194 14.4954 7.06065C14.6663 7.51478 14.6663 8.08391 14.6663 9.22218V10.4C14.6663 11.8934 14.6663 12.6402 14.3757 13.2106C14.1201 13.7124 13.7121 14.1203 13.2103 14.376C12.6399 14.6666 11.8931 14.6666 10.3997 14.6666H9.22193C8.08359 14.6666 7.51446 14.6666 7.06033 14.4957C6.34163 14.2252 5.77443 13.658 5.50393 12.9393C5.33301 12.4852 5.33301 11.916 5.33301 10.7778" stroke="#A1A1A1" stroke-width="1.2" stroke-linecap="round" stroke-linejoin="round"/>
<path d="M7.66667 1H3.66667C2.19391 1 1 2.19391 1 3.66667V7.66667C1 9.13943 2.19391 10.3333 3.66667 10.3333H7.66667C9.13943 10.3333 10.3333 9.13943 10.3333 7.66667V3.66667C10.3333 2.19391 9.13943 1 7.66667 1Z" stroke="#0C0C0C" stroke-width="1.2" stroke-linecap="round" stroke-linejoin="round"/>
</g>
<defs>
<clipPath id="clip0_2562_1433">
<rect width="16" height="16" fill="white"/>
</clipPath>
</defs>
</svg>
