<svg width="193" height="48" viewBox="0 0 193 48" fill="none" xmlns="http://www.w3.org/2000/svg">
<path d="M8.35156 8.93848C9.14117 8.93848 9.83551 9.15969 10.4258 9.60645L10.5352 9.69336C11.0645 10.1403 11.3301 10.7351 11.3301 11.4619V15.1963H15.0127C15.8615 15.1963 16.5463 15.4298 17.0449 15.916L17.2295 16.0889C17.6335 16.5029 17.8428 16.9872 17.8428 17.5381C17.8428 18.1675 17.5696 18.7101 17.0449 19.1602L17.0439 19.1592C16.5447 19.6158 15.8608 19.835 15.0127 19.835H11.3301V30.3711C11.3301 31.5991 11.4773 32.5736 11.7627 33.3027C11.9138 33.6327 12.1323 33.8746 12.418 34.0361C12.7074 34.1998 13.0759 34.2871 13.5322 34.2871C14.033 34.2871 14.5356 34.1865 15.041 33.9844C15.6482 33.7054 16.2166 33.5615 16.7402 33.5615C17.4709 33.5616 18.0894 33.803 18.583 34.2891H18.582C19.1037 34.7398 19.3721 35.2957 19.3721 35.9492C19.372 36.4139 19.2095 36.8566 18.8955 37.2734L18.8945 37.2725C18.6122 37.6608 18.1954 37.9927 17.6543 38.2725L17.6504 38.2754V38.2744C16.9502 38.6115 16.3096 38.8288 15.7305 38.9229L15.7314 38.9238C15.1915 39.0168 14.4568 39.0625 13.5322 39.0625C10.8559 39.0624 8.81943 38.3431 7.4541 36.8779C6.09075 35.4148 5.42285 33.2356 5.42285 30.3711V19.835H3.71387C2.83176 19.835 2.11481 19.6163 1.58301 19.1602L1.40527 18.9824C1.02805 18.5678 0.834961 18.0849 0.834961 17.5381C0.834963 16.913 1.08787 16.3714 1.5791 15.9199L1.78711 15.748C2.29287 15.3758 2.93977 15.1963 3.71387 15.1963H5.42285V11.4619C5.42285 10.6905 5.70584 10.0666 6.27441 9.60938L6.27832 9.60645L6.50488 9.44922C7.04372 9.10771 7.66093 8.93852 8.35156 8.93848Z" fill="#C2F041" stroke="#C2F041" stroke-width="0.331034"/>
<path d="M30.5679 34.4646C32.2628 34.4646 33.7061 34.0011 34.8978 33.0742C35.4804 32.571 36.0763 32.3194 36.6854 32.3194C37.2415 32.3194 37.705 32.5181 38.0758 32.9153C38.473 33.3126 38.6716 33.776 38.6716 34.3057C38.6716 34.9148 38.4068 35.4841 37.8771 36.0138C37.0032 36.8612 35.9306 37.4836 34.6595 37.8808C33.4148 38.2516 32.0906 38.4237 30.6871 38.3972C28.6214 38.3972 26.7941 37.9735 25.2051 37.1261C23.6162 36.2786 22.3847 35.1001 21.5108 33.5906C20.6369 32.0546 20.1999 30.3068 20.1999 28.347C20.1999 26.1754 20.6236 24.2687 21.4711 22.6268C22.3185 20.9583 23.5235 19.6739 25.086 18.7735C26.6484 17.8466 28.4758 17.3832 30.5679 17.3832C33.6929 17.3832 36.1293 18.3233 37.8771 20.2036C39.625 22.0839 40.5122 24.5865 40.5386 27.7114C40.5386 28.5059 40.3798 29.1018 40.062 29.499C39.7442 29.8963 39.0689 30.0949 38.036 30.0949H24.8079C25.1786 31.3926 25.8804 32.4519 26.9133 33.2728C27.9461 34.0673 29.1643 34.4646 30.5679 34.4646ZM30.6076 21.3159C29.0716 21.3159 27.7872 21.7926 26.7544 22.7459C25.7215 23.6993 25.0595 24.9705 24.7682 26.5594H36.3279C36.169 24.9175 35.6261 23.6331 34.6992 22.7062C33.7723 21.7793 32.4084 21.3159 30.6076 21.3159ZM54.5271 17.7804C55.2686 17.7804 55.838 17.9393 56.2353 18.2571C56.659 18.5749 56.8709 19.0648 56.8709 19.7269C56.8709 20.3625 56.659 20.8657 56.2353 21.2364C55.8115 21.6072 55.2422 21.7926 54.5271 21.7926C52.9117 21.7926 51.7464 22.3619 51.0314 23.5007C50.3429 24.6394 49.9986 26.2814 49.9986 28.4265V35.9741C49.9986 36.5567 49.7867 37.0466 49.363 37.4439C48.9393 37.8146 48.4229 38 47.8138 38C47.1252 38 46.5691 37.8146 46.1453 37.4439C45.7216 37.0731 45.5098 36.5832 45.5098 35.9741V19.8063C45.5098 19.1972 45.7349 18.7073 46.1851 18.3366C46.6618 17.9658 47.2046 17.7804 47.8138 17.7804C48.3964 17.7804 48.8995 17.9658 49.3233 18.3366C49.7735 18.6808 49.9986 19.1708 49.9986 19.8063V20.0447C51.1109 18.5352 52.6204 17.7804 54.5271 17.7804ZM86.2633 17.3832C88.991 17.3832 91.1229 18.2703 92.6589 20.0447C94.2214 21.7926 95.0026 24.1098 95.0026 26.9964V35.9343C95.0026 36.5699 94.804 37.0731 94.4068 37.4439C94.0095 37.8146 93.4534 38 92.7383 38C92.0763 38 91.5334 37.8146 91.1096 37.4439C90.6859 37.0466 90.4741 36.5434 90.4741 35.9343V26.917C90.4741 25.1956 90.0636 23.845 89.2426 22.8651C88.4481 21.8588 87.2432 21.3556 85.6277 21.3556C84.7273 21.3556 83.8004 21.6337 82.847 22.1898C81.9201 22.7459 81.1389 23.5404 80.5033 24.5732C79.8942 25.6061 79.5896 26.7978 79.5896 28.1484V35.9343C79.5896 36.5699 79.391 37.0731 78.9938 37.4439C78.623 37.8146 78.0801 38 77.3651 38C76.6765 38 76.1204 37.8146 75.6967 37.4439C75.273 37.0466 75.0611 36.5434 75.0611 35.9343V26.917C75.0611 25.1956 74.6506 23.845 73.8296 22.8651C73.0352 21.8588 71.8302 21.3556 70.2148 21.3556C69.4732 21.3556 68.639 21.6204 67.7121 22.1501C66.7852 22.6532 65.9908 23.4212 65.3287 24.4541C64.6666 25.4869 64.3356 26.7183 64.3356 28.1484V36.0138C64.3356 36.6494 64.1105 37.1393 63.6603 37.4836C63.2101 37.8279 62.6804 38 62.0713 38C61.4622 38 60.9325 37.8279 60.4823 37.4836C60.0586 37.1393 59.8468 36.6494 59.8468 36.0138V19.8063C59.8468 19.2502 60.0586 18.7735 60.4823 18.3763C60.9325 17.979 61.4622 17.7804 62.0713 17.7804C62.7334 17.7804 63.2763 17.979 63.7 18.3763C64.1237 18.7735 64.3356 19.2502 64.3356 19.8063V19.9255C66.0834 18.2306 68.2683 17.3832 70.8901 17.3832C72.532 17.3832 73.9621 17.7142 75.1803 18.3763C76.3985 19.0383 77.3783 19.9652 78.1199 21.157C79.2321 19.7799 80.5033 18.8132 81.9334 18.2571C83.3899 17.6745 84.8332 17.3832 86.2633 17.3832Z" fill="#C2F041"/>
<path d="M115.902 10.3496C118.563 9.14865 121.513 8.69939 124.423 9.05762L124.844 9.11523C126.942 9.43028 128.948 10.1586 130.745 11.249L130.863 11.3252C131.973 12.0919 132.099 13.5932 131.339 14.666L131.169 14.8818C130.25 15.9333 128.702 16.0834 127.471 15.4932L127.23 15.3652C126.001 14.6509 124.63 14.0801 123.41 13.8818L123.167 13.8467C121.395 13.6285 119.898 14.0613 118.305 14.791L117.616 15.1211C117.436 15.2105 117.243 15.3011 117.042 15.3945L116.418 15.6816C115.508 16.0974 114.5 16.5576 113.616 17.0938C112.784 17.598 112.082 18.1594 111.67 18.7959L111.592 18.9238C111.317 19.4031 111.298 19.9801 111.429 20.6348C111.56 21.2905 111.836 21.9979 112.119 22.7246L112.354 23.3369C112.416 23.5031 112.475 23.6698 112.532 23.835H112.644L112.588 24L112.644 24.166H112.532C112.475 24.3309 112.416 24.4972 112.354 24.6631L112.119 25.2754C111.836 26.0021 111.56 26.7095 111.429 27.3652C111.298 28.0199 111.317 28.5969 111.592 29.0762L111.67 29.2041C112.082 29.8406 112.784 30.402 113.616 30.9062C114.5 31.4424 115.508 31.9026 116.418 32.3184L117.042 32.6055C117.243 32.699 117.436 32.7905 117.616 32.8799L118.305 33.209C119.898 33.9387 121.395 34.3715 123.167 34.1533L123.41 34.1182C124.63 33.9199 126.001 33.3491 127.23 32.6348L127.471 32.5068C128.702 31.9166 130.25 32.0668 131.169 33.1182L131.339 33.334C132.099 34.4068 131.973 35.9081 130.863 36.6748L130.745 36.751C128.948 37.8414 126.942 38.5697 124.844 38.8848L124.423 38.9424C121.513 39.3006 118.563 38.8514 115.902 37.6504L115.375 37.4004C112.753 36.0996 110.552 34.1053 109.014 31.6445L108.715 31.1465C107.484 29.0033 106.789 26.6107 106.671 24.166H106.656L106.663 24.0059L106.656 23.835H106.67C106.788 21.3899 107.484 18.9969 108.715 16.8535L109.014 16.3555C110.552 13.8947 112.753 11.9004 115.375 10.5996L115.902 10.3496Z" fill="#C2F041" stroke="#C2F041" stroke-width="0.331034"/>
<path d="M150.127 17.7804C150.789 17.7804 151.332 17.979 151.756 18.3763C152.179 18.747 152.391 19.237 152.391 19.8461V35.9343C152.391 36.5434 152.179 37.0466 151.756 37.4439C151.332 37.8146 150.789 38 150.127 38C149.491 38 148.975 37.8543 148.578 37.563C148.207 37.2452 147.982 36.8348 147.902 36.3316C147.029 37.0201 146.035 37.5366 144.923 37.8808C143.837 38.2251 142.765 38.3972 141.705 38.3972C139.799 38.3972 138.144 37.9603 136.74 37.0863C135.363 36.2124 134.304 34.981 133.562 33.392C132.821 31.803 132.45 29.9492 132.45 27.8306C132.45 25.7914 132.86 23.9906 133.681 22.4281C134.502 20.8392 135.641 19.6077 137.097 18.7338C138.581 17.8334 140.289 17.3832 142.222 17.3832C143.122 17.3832 144.076 17.5553 145.082 17.8996C146.115 18.2439 147.055 18.7338 147.902 19.3694C148.008 18.8662 148.247 18.4822 148.617 18.2174C149.015 17.9261 149.518 17.7804 150.127 17.7804ZM142.182 34.3851C143.427 34.3851 144.566 34.1203 145.598 33.5906C146.658 33.061 147.413 32.3062 147.863 31.3263V24.4541C147.386 23.5007 146.645 22.7592 145.638 22.2295C144.658 21.6734 143.625 21.3953 142.54 21.3953C140.871 21.3953 139.521 22.0044 138.488 23.2226C137.481 24.4143 136.978 25.9636 136.978 27.8703C136.978 29.8301 137.455 31.4058 138.408 32.5975C139.362 33.7892 140.62 34.3851 142.182 34.3851ZM167.058 34.2262C167.535 33.9879 167.972 33.8687 168.369 33.8687C168.925 33.8687 169.388 34.0673 169.759 34.4646C170.156 34.8353 170.355 35.2855 170.355 35.8152C170.355 36.1859 170.236 36.5434 169.997 36.8877C169.786 37.2055 169.468 37.4836 169.044 37.7219C168.488 38.0132 167.985 38.1986 167.535 38.2781C167.111 38.3575 166.528 38.3972 165.787 38.3972C161.523 38.3972 159.391 35.9079 159.391 30.9291V21.5542H157.882C157.193 21.5542 156.65 21.3688 156.253 20.9981C155.882 20.6273 155.697 20.1903 155.697 19.6872C155.697 19.184 155.882 18.747 156.253 18.3763C156.65 17.979 157.193 17.7804 157.882 17.7804H159.391V14.3641C159.391 13.7286 159.603 13.2254 160.027 12.8546C160.477 12.4839 161.007 12.2985 161.616 12.2985C162.225 12.2985 162.754 12.4839 163.205 12.8546C163.655 13.2254 163.88 13.7286 163.88 14.3641V17.7804H166.978C167.64 17.7804 168.157 17.979 168.528 18.3763C168.925 18.747 169.124 19.184 169.124 19.6872C169.124 20.1903 168.925 20.6273 168.528 20.9981C168.157 21.3688 167.64 21.5542 166.978 21.5542H163.88V30.9291C163.88 32.0149 163.999 32.8888 164.237 33.5509C164.502 34.1865 165.019 34.5043 165.787 34.5043C166.21 34.5043 166.634 34.4116 167.058 34.2262Z" fill="#C2F041"/>
</svg>
