<svg width="194" height="120" viewBox="0 0 194 120" fill="none" xmlns="http://www.w3.org/2000/svg">
<path d="M32.878 15.4V49H28.318V20.68L20.782 26.392L18.094 22.792L28.078 15.4H32.878ZM60.7255 49H55.6855L67.7815 19.816H49.7815V15.4H72.3895V20.296L60.7255 49ZM78.7911 41.608C80.5511 44.072 83.1591 45.304 86.6151 45.304C89.4631 45.304 91.7831 44.184 93.5751 41.944C95.3991 39.672 96.4391 36.664 96.6951 32.92C95.7991 34.616 94.4711 35.976 92.7111 37C90.9511 37.992 89.0151 38.488 86.9031 38.488C83.6711 38.488 80.9511 37.352 78.7431 35.08C76.5351 32.776 75.4311 29.96 75.4311 26.632C75.4311 23.176 76.6151 20.312 78.9831 18.04C81.3511 15.736 84.3271 14.584 87.9111 14.584C90.3431 14.584 92.5671 15.144 94.5831 16.264C96.5991 17.352 98.1511 18.888 99.2391 20.872C100.583 23.368 101.255 26.584 101.255 30.52C101.255 36.344 99.8631 41.032 97.0791 44.584C94.3271 48.104 90.7431 49.864 86.3271 49.864C84.1191 49.864 82.0871 49.416 80.2311 48.52C78.4071 47.624 76.9671 46.392 75.9111 44.824L78.7911 41.608ZM96.2151 26.824C96.2151 24.712 95.3831 22.904 93.7191 21.4C92.0871 19.896 90.1031 19.144 87.7671 19.144C85.5271 19.144 83.6711 19.848 82.1991 21.256C80.7271 22.664 79.9911 24.44 79.9911 26.584C79.9911 28.728 80.7431 30.488 82.2471 31.864C83.7511 33.24 85.6711 33.928 88.0071 33.928C90.3751 33.928 92.3271 33.256 93.8631 31.912C95.4311 30.568 96.2151 28.872 96.2151 26.824ZM109.288 33.496C109.288 36.952 110.184 39.784 111.976 41.992C113.768 44.2 115.96 45.304 118.552 45.304C121.144 45.304 123.336 44.2 125.128 41.992C126.92 39.784 127.816 36.952 127.816 33.496V30.952C127.816 27.496 126.92 24.664 125.128 22.456C123.336 20.248 121.144 19.144 118.552 19.144C115.96 19.144 113.768 20.248 111.976 22.456C110.184 24.664 109.288 27.496 109.288 30.952V33.496ZM104.728 33.496V30.952C104.728 26.216 106.056 22.312 108.712 19.24C111.4 16.136 114.68 14.584 118.552 14.584C122.424 14.584 125.688 16.136 128.344 19.24C131.032 22.312 132.376 26.216 132.376 30.952V33.496C132.376 38.232 131.032 42.152 128.344 45.256C125.688 48.328 122.424 49.864 118.552 49.864C114.68 49.864 111.4 48.328 108.712 45.256C106.056 42.152 104.728 38.232 104.728 33.496ZM165.735 34.12H157.335V37.96H164.391V41.656H157.335V49H152.775V41.656H148.407V37.96H152.775V34.12H148.407V30.04H152.775V15.4H166.215C168.967 15.4 171.255 16.296 173.079 18.088C174.903 19.88 175.815 22.136 175.815 24.856C175.815 27.448 174.839 29.64 172.887 31.432C170.935 33.224 168.551 34.12 165.735 34.12ZM165.735 19.864H157.335V30.04H165.735C167.303 30.04 168.615 29.544 169.671 28.552C170.727 27.56 171.255 26.328 171.255 24.856C171.255 23.416 170.727 22.232 169.671 21.304C168.647 20.344 167.335 19.864 165.735 19.864Z" fill="#0C0C0C"/>
<path d="M16.75 36.616H177.255V38.968H16.75V36.616Z" fill="#0C0C0C"/>
<path d="M38.7102 93.212C39.8982 92.168 41.2482 91.358 42.7602 90.782C44.2722 90.206 45.7482 89.918 47.1882 89.918C50.3202 89.918 52.9662 91.196 55.1262 93.752C57.3222 96.308 58.4202 99.422 58.4202 103.094C58.4202 107.054 57.1242 110.294 54.5322 112.814C51.9762 115.334 48.7002 116.594 44.7042 116.594C41.3922 116.594 38.5302 115.712 36.1182 113.948C33.7062 112.184 32.0502 109.772 31.1502 106.712L38.0622 104.444C38.4222 106.064 39.1782 107.324 40.3302 108.224C41.5182 109.124 42.9582 109.574 44.6502 109.574C46.6302 109.574 48.2502 108.98 49.5102 107.792C50.7702 106.568 51.4002 104.984 51.4002 103.04C51.4002 101.132 50.8062 99.566 49.6182 98.342C48.4662 97.082 47.0082 96.452 45.2442 96.452C42.7962 96.452 40.6182 97.514 38.7102 99.638L31.6902 97.856V78.2H57.3402V85.058H38.7102V93.212ZM69.0198 98.558C69.0198 101.87 69.8658 104.606 71.5578 106.766C73.2498 108.89 75.3018 109.952 77.7138 109.952C80.1258 109.952 82.1778 108.89 83.8698 106.766C85.5618 104.606 86.4078 101.87 86.4078 98.558V95.696C86.4078 92.384 85.5618 89.666 83.8698 87.542C82.1778 85.382 80.1258 84.302 77.7138 84.302C75.3018 84.302 73.2498 85.382 71.5578 87.542C69.8658 89.666 69.0198 92.384 69.0198 95.696V98.558ZM61.9998 98.558V95.696C61.9998 90.368 63.5118 85.976 66.5358 82.52C69.5958 79.028 73.3218 77.282 77.7138 77.282C82.1058 77.282 85.8138 79.028 88.8378 82.52C91.8978 85.976 93.4278 90.368 93.4278 95.696V98.558C93.4278 103.886 91.8978 108.296 88.8378 111.788C85.8138 115.244 82.1058 116.972 77.7138 116.972C73.3218 116.972 69.5958 115.244 66.5358 111.788C63.5118 108.296 61.9998 103.886 61.9998 98.558ZM104.035 98.558C104.035 101.87 104.881 104.606 106.573 106.766C108.265 108.89 110.317 109.952 112.729 109.952C115.141 109.952 117.193 108.89 118.885 106.766C120.577 104.606 121.423 101.87 121.423 98.558V95.696C121.423 92.384 120.577 89.666 118.885 87.542C117.193 85.382 115.141 84.302 112.729 84.302C110.317 84.302 108.265 85.382 106.573 87.542C104.881 89.666 104.035 92.384 104.035 95.696V98.558ZM97.0154 98.558V95.696C97.0154 90.368 98.5274 85.976 101.551 82.52C104.611 79.028 108.337 77.282 112.729 77.282C117.121 77.282 120.829 79.028 123.853 82.52C126.913 85.976 128.443 90.368 128.443 95.696V98.558C128.443 103.886 126.913 108.296 123.853 111.788C120.829 115.244 117.121 116.972 112.729 116.972C108.337 116.972 104.611 115.244 101.551 111.788C98.5274 108.296 97.0154 103.886 97.0154 98.558ZM165.81 100.232H157.764V103.58H165.972V108.98H157.764V116H150.744V108.98H146.262V103.58H150.744V100.178H146.262V94.022H150.744V78.2H166.35C169.59 78.2 172.272 79.28 174.396 81.44C176.556 83.564 177.636 86.246 177.636 89.486C177.636 92.474 176.484 95.012 174.18 97.1C171.912 99.188 169.122 100.232 165.81 100.232ZM165.81 85.112H157.764V94.022H165.81C167.178 94.022 168.312 93.59 169.212 92.726C170.148 91.862 170.616 90.782 170.616 89.486C170.616 88.226 170.148 87.182 169.212 86.354C168.312 85.526 167.178 85.112 165.81 85.112Z" fill="#B084D3"/>
</svg>
