<svg width="48" height="48" viewBox="0 0 48 48" fill="none" xmlns="http://www.w3.org/2000/svg">
<path d="M20.666 36.4397C20.9528 36.0561 21.1 35.6522 21.1 35.2298C21.1 34.6314 20.8561 34.1222 20.3769 33.7074C19.9273 33.263 19.3647 33.0416 18.6965 33.0416C18.218 33.0416 17.6975 33.1741 17.1365 33.4333C16.6567 33.6272 16.1788 33.7234 15.7019 33.7234C15.2689 33.7234 14.9148 33.6406 14.6342 33.4808C14.3554 33.3221 14.143 33.0841 13.9974 32.7619C13.7278 32.0678 13.5905 31.1448 13.5905 29.9878V20.03H17.084C17.8683 20.03 18.4939 19.8268 18.9474 19.4079C19.4261 18.9941 19.6718 18.4992 19.6718 17.9269C19.6718 17.3552 19.4266 16.8607 18.9487 16.4471C18.4955 15.9994 17.8694 15.7813 17.084 15.7813H13.5905V12.2161C13.5905 11.5045 13.316 10.9346 12.7679 10.5171C12.227 10.105 11.591 9.9 10.8645 9.9C10.138 9.9 9.50199 10.105 8.96108 10.5171L8.96105 10.5171L8.95877 10.5189C8.44185 10.9373 8.18455 11.5068 8.18455 12.2161V15.7813H6.53388C5.71727 15.7813 5.0609 15.9996 4.57708 16.4471C4.12857 16.862 3.9 17.3567 3.9 17.9269C3.9 18.4972 4.12857 18.9918 4.57708 19.4067L4.57704 19.4068L4.57964 19.409C5.06354 19.8268 5.71894 20.03 6.53388 20.03H8.18455V29.9878C8.18455 32.6721 8.80565 34.704 10.0655 36.0649C11.3267 37.4272 13.212 38.1 15.7019 38.1C16.5639 38.1 17.2459 38.0574 17.7456 37.9708C18.2798 37.8835 18.8727 37.6807 19.5233 37.3655L19.5233 37.3655L19.5258 37.3642C20.0266 37.1037 20.4088 36.7964 20.666 36.4397ZM20.666 36.4397C20.6658 36.4399 20.6656 36.4402 20.6654 36.4404L20.5854 36.3805M20.666 36.4397C20.6662 36.4394 20.6663 36.4392 20.6665 36.439L20.5854 36.3805M20.5854 36.3805C20.3397 36.7215 19.9711 37.0198 19.4797 37.2755L17.1762 33.5251C17.729 33.2694 18.2358 33.1416 18.6965 33.1416C19.3415 33.1416 19.879 33.3546 20.3089 33.7808C20.7696 34.1786 21 34.6616 21 35.2298C21 35.6276 20.8618 36.0111 20.5854 36.3805Z" fill="#E8E8E8" stroke="#C2F041" stroke-width="0.2"/>
<path d="M23.9035 23.9H23.8967L23.8999 24L23.8967 24.1H23.9035C23.9916 26.4047 24.5514 28.6619 25.5466 30.683C26.7863 33.2005 28.6464 35.2398 30.8938 36.541C33.1414 37.8423 35.6745 38.3462 38.1722 37.9876C39.983 37.7275 41.7149 37.0227 43.2549 35.9322C44.2748 35.21 44.3531 33.6322 43.5884 32.612C42.8122 31.5763 41.4577 31.4809 40.4461 32.1667C39.3876 32.8844 38.1985 33.4489 37.1649 33.5973C35.528 33.8324 34.1817 33.2663 32.6815 32.3977C32.3921 32.2302 32.0638 32.0553 31.7183 31.8713L31.7173 31.8707C30.9841 31.4802 30.171 31.0469 29.4572 30.5418C28.7425 30.036 28.1375 29.465 27.812 28.804C27.5806 28.334 27.5679 27.7721 27.6747 27.149C27.7815 26.5258 28.005 25.8556 28.2326 25.1741L28.233 25.1729C28.3524 24.8153 28.4728 24.455 28.5762 24.1H28.6334L28.6049 24L28.6334 23.9H28.5762C28.4728 23.545 28.3524 23.1846 28.233 22.827L28.2326 22.8259C28.005 22.1444 27.7815 21.4742 27.6747 20.851C27.5679 20.2279 27.5806 19.666 27.812 19.196C28.1375 18.535 28.7425 17.964 29.4572 17.4582C30.171 16.9531 30.9841 16.5198 31.7173 16.1293L31.7183 16.1287C32.0639 15.9447 32.3921 15.7698 32.6815 15.6023C34.1817 14.7337 35.528 14.1676 37.1649 14.4027C38.1985 14.5511 39.3876 15.1156 40.4461 15.8333C41.4577 16.5191 42.8122 16.4237 43.5884 15.388C44.3531 14.3678 44.2748 12.79 43.2549 12.0677C41.7149 10.9773 39.983 10.2725 38.1722 10.0124C35.6745 9.65377 33.1414 10.1577 30.8938 11.459C28.6464 12.7602 26.7863 14.7995 25.5466 17.317C24.5514 19.3381 23.9916 21.5953 23.9035 23.9Z" fill="#E8E8E8" stroke="#C2F041" stroke-width="0.2"/>
</svg>
