<svg width="48" height="48" viewBox="0 0 48 48" fill="none" xmlns="http://www.w3.org/2000/svg">
<path d="M21 24H34M34 24L30 20M34 24L30 28" stroke="#A1A1A1" stroke-width="1.5" stroke-linecap="round" stroke-linejoin="round"/>
<path d="M26 28.0005V28.5C26 29.896 26 30.594 25.8277 31.1619C25.4398 32.4401 24.4396 33.4403 23.1614 33.8281C22.5935 34.0005 21.8955 34.0005 20.4995 34.0005H20C18.1362 34.0005 17.2044 34.0005 16.4693 33.696C15.4892 33.29 14.7105 32.5113 14.3045 31.5312C14 30.7961 14 29.8643 14 28.0005V20.0005C14 18.1367 14 17.2048 14.3045 16.4697C14.7105 15.4896 15.4892 14.7109 16.4693 14.305C17.2044 14.0005 18.1362 14.0005 20 14.0005H20.5005C21.8956 14.0005 22.5932 14.0005 23.1608 14.1726C24.4395 14.5604 25.4401 15.561 25.8279 16.8397C26 17.4073 26 18.1049 26 19.5V20.0005" stroke="#E8E8E8" stroke-width="1.5" stroke-linecap="round" stroke-linejoin="round"/>
</svg>
