<svg width="34" height="34" viewBox="0 0 34 34" fill="none" xmlns="http://www.w3.org/2000/svg">
<mask id="mask0_3325_3029" style="mask-type:luminance" maskUnits="userSpaceOnUse" x="0" y="0" width="34" height="34">
<path d="M33.9706 16.9706L17 0L0.0294375 16.9706L17 33.9411L33.9706 16.9706Z" fill="white"/>
</mask>
<g mask="url(#mask0_3325_3029)">
<path d="M18.9569 8.46052L27.8876 13.4841C29.9145 14.6242 30.9279 15.1942 31.2655 15.9433C31.5598 16.5964 31.5598 17.3444 31.2655 17.9975C30.9279 18.7465 29.9145 19.3166 27.8876 20.4567L18.957 25.48C15.7249 27.298 14.1089 28.207 13.1497 27.9723C12.3202 27.7693 11.6517 27.157 11.3769 26.3485C11.0591 25.4135 11.8233 23.7241 13.3515 20.3453L14.1323 18.6189C14.4066 18.0123 14.5438 17.709 14.598 17.3932C14.646 17.1135 14.646 16.8276 14.5981 16.5478C14.5439 16.2321 14.4067 15.9288 14.1323 15.3222L13.3512 13.5952C11.8231 10.2164 11.0591 8.52707 11.3769 7.59207C11.6517 6.78354 12.3202 6.17122 13.1497 5.96825C14.1089 5.73352 15.7249 6.64252 18.9569 8.46052Z" fill="#A1A1A1"/>
<path fill-rule="evenodd" clip-rule="evenodd" d="M14.6344 16.9703C14.6345 17.1117 14.6225 17.2531 14.5985 17.393C14.5443 17.7087 14.4072 18.012 14.1327 18.6187L13.3519 20.3451C11.8237 23.7238 11.0596 25.4132 11.3774 26.3482C11.6521 27.1568 12.3207 27.769 13.1502 27.972C14.1093 28.2068 15.7254 27.2978 18.9575 25.4798L27.8881 20.4564C29.915 19.3164 30.9284 18.7463 31.2659 17.9972C31.4131 17.6708 31.4867 17.3206 31.4866 16.9703L14.6344 16.9703Z" fill="#E1E1E1"/>
</g>
</svg>
