<svg width="889" height="372" viewBox="0 0 889 372" fill="none" xmlns="http://www.w3.org/2000/svg">
<g opacity="0.2">
<path d="M177.601 284.925H0V239.069L175.027 5.66758H239.375V231.341H283.132V284.925H239.375V366.332H177.601V284.925ZM177.601 231.341V76.7701L61.7742 231.341H177.601Z" fill="#A1A1A1"/>
<path d="M451.025 372C432.15 372 414.476 369.08 398.002 363.241C381.873 357.402 367.802 347.44 355.79 333.357C343.778 318.931 334.341 299.867 327.477 276.166C320.613 252.122 317.181 222.066 317.181 186V175.695C317.181 142.377 320.613 114.554 327.477 92.2271C334.341 69.5568 343.778 51.5235 355.79 38.1274C367.802 24.3878 381.873 14.5983 398.002 8.75901C414.476 2.91967 432.15 0 451.025 0C469.901 0 487.403 2.91967 503.533 8.75901C520.006 14.5983 534.249 24.3878 546.26 38.1274C558.272 51.5235 567.71 69.5568 574.574 92.2271C581.437 114.554 584.869 142.377 584.869 175.695V186C584.869 222.066 581.437 252.122 574.574 276.166C567.71 299.867 558.272 318.931 546.26 333.357C534.249 347.44 520.006 357.402 503.533 363.241C487.403 369.08 469.901 372 451.025 372ZM451.025 318.415C460.635 318.415 469.729 316.526 478.309 312.748C486.889 308.97 494.439 302.271 500.959 292.654C507.823 282.693 513.143 269.125 516.918 251.95C521.036 234.776 523.095 212.792 523.095 186V175.695C523.095 151.651 521.036 131.729 516.918 115.928C513.143 100.127 507.823 87.59 500.959 78.3158C494.439 69.0415 486.889 62.687 478.309 59.2521C469.729 55.4737 460.635 53.5845 451.025 53.5845C441.416 53.5845 432.321 55.4737 423.742 59.2521C415.162 62.687 407.44 69.0415 400.576 78.3158C394.056 87.59 388.736 100.127 384.618 115.928C380.843 131.729 378.955 151.651 378.955 175.695V186C378.955 212.792 380.843 234.776 384.618 251.95C388.736 269.125 394.056 282.693 400.576 292.654C407.44 302.271 415.162 308.97 423.742 312.748C432.321 316.526 441.416 318.415 451.025 318.415Z" fill="#A1A1A1"/>
<path d="M783.469 284.925H605.868V239.069L780.895 5.66758H845.243V231.341H889V284.925H845.243V366.332H783.469V284.925ZM783.469 231.341V76.7701L667.643 231.341H783.469Z" fill="#A1A1A1"/>
</g>
</svg>
