<svg width="16" height="16" viewBox="0 0 16 16" fill="none" xmlns="http://www.w3.org/2000/svg">
<path d="M0.566947 14.5674C0.332632 14.8017 0.332632 15.1816 0.566947 15.416C0.801261 15.6503 1.18116 15.6503 1.41548 15.416L0.566947 14.5674ZM15.0262 1.55667C15.0262 1.2253 14.7576 0.956669 14.4262 0.956669L9.02624 0.956669C8.69487 0.956669 8.42624 1.2253 8.42624 1.55667C8.42624 1.88804 8.69487 2.15667 9.02624 2.15667L13.8262 2.15667L13.8262 6.95667C13.8262 7.28804 14.0949 7.55667 14.4262 7.55667C14.7576 7.55667 15.0262 7.28804 15.0262 6.95667L15.0262 1.55667ZM0.991211 14.9917L1.41548 15.416L14.8505 1.98093L14.4262 1.55667L14.002 1.13241L0.566947 14.5674L0.991211 14.9917Z" fill="#0C0C0C"/>
</svg>
