<svg width="48" height="48" viewBox="0 0 48 48" fill="none" xmlns="http://www.w3.org/2000/svg">
<rect width="48" height="48" rx="24" fill="#E8E8E8"/>
<path d="M15.5661 31.5661C15.3318 31.8004 15.3318 32.1803 15.5661 32.4146C15.8004 32.6489 16.1803 32.6489 16.4146 32.4146L15.5661 31.5661ZM32.1467 16.434C32.1467 16.1026 31.8781 15.834 31.5467 15.834L26.1467 15.834C25.8153 15.834 25.5467 16.1026 25.5467 16.434C25.5467 16.7654 25.8153 17.034 26.1467 17.034L30.9467 17.034L30.9467 21.834C30.9467 22.1654 31.2153 22.434 31.5467 22.434C31.8781 22.434 32.1467 22.1654 32.1467 21.834L32.1467 16.434ZM16.4146 32.4146L31.971 16.8583L31.1224 16.0097L15.5661 31.5661L16.4146 32.4146Z" fill="#0C0C0C"/>
</svg>
