<svg width="148" height="36" viewBox="0 0 148 36" fill="none" xmlns="http://www.w3.org/2000/svg">
<path d="M14.3881 5.34961L6.08428 31.762C3.33005 29.5987 1.29034 26.6596 0.229492 23.3256L5.87668 5.34961H14.3881Z" fill="#C2F041"/>
<path d="M20.8994 19.1787L15.7572 35.4999C13.0156 35.3196 10.3557 34.4945 7.99475 33.0919L12.3683 19.1787H20.8994Z" fill="#C2F041"/>
<path d="M26.179 2.9192L21.7297 17.076H13.2295L18.4334 0.5C21.1708 0.682957 23.8255 1.5121 26.179 2.9192Z" fill="#C2F041"/>
<path d="M33.7705 12.6801L28.1233 30.656H19.6174L27.9129 4.24365C30.6673 6.40738 32.7078 9.34624 33.7705 12.6801Z" fill="#C2F041"/>
<path d="M38.6227 12.5881V9.54545H52.9579V12.5881H47.6141V27H43.9664V12.5881H38.6227ZM59.318 27.2557C57.9714 27.2557 56.8123 26.983 55.8407 26.4375C54.8748 25.8864 54.1305 25.108 53.6077 24.1023C53.085 23.0909 52.8237 21.8949 52.8237 20.5142C52.8237 19.1676 53.085 17.9858 53.6077 16.9688C54.1305 15.9517 54.8663 15.1591 55.8151 14.5909C56.7697 14.0227 57.889 13.7386 59.1731 13.7386C60.0367 13.7386 60.8407 13.8778 61.585 14.1562C62.335 14.429 62.9884 14.8409 63.5452 15.392C64.1077 15.9432 64.5452 16.6364 64.8577 17.4716C65.1702 18.3011 65.3265 19.2727 65.3265 20.3864V21.3835H54.2725V19.1335H61.9089C61.9089 18.6108 61.7952 18.1477 61.568 17.7443C61.3407 17.3409 61.0254 17.0256 60.6219 16.7983C60.2242 16.5653 59.7612 16.4489 59.2327 16.4489C58.6816 16.4489 58.193 16.5767 57.7668 16.8324C57.3464 17.0824 57.0168 17.4205 56.7782 17.8466C56.5396 18.267 56.4174 18.7358 56.4117 19.2528V21.392C56.4117 22.0398 56.531 22.5994 56.7697 23.071C57.014 23.5426 57.3577 23.9062 57.8009 24.1619C58.2441 24.4176 58.7697 24.5455 59.3776 24.5455C59.781 24.5455 60.1504 24.4886 60.4856 24.375C60.8208 24.2614 61.1077 24.0909 61.3464 23.8636C61.585 23.6364 61.7668 23.358 61.8918 23.0284L65.2498 23.25C65.0793 24.0568 64.7299 24.7614 64.2015 25.3636C63.6788 25.9602 63.0026 26.4261 62.1731 26.7614C61.3492 27.0909 60.3975 27.2557 59.318 27.2557ZM67.6958 27V13.9091H71.2157V16.1932H71.3521C71.5907 15.3807 71.9913 14.767 72.5538 14.3523C73.1163 13.9318 73.764 13.7216 74.4969 13.7216C74.6788 13.7216 74.8748 13.733 75.085 13.7557C75.2952 13.7784 75.4799 13.8097 75.639 13.8494V17.071C75.4685 17.0199 75.2327 16.9744 74.9316 16.9347C74.6305 16.8949 74.3549 16.875 74.1049 16.875C73.5708 16.875 73.0935 16.9915 72.6731 17.2244C72.2583 17.4517 71.9288 17.7699 71.6844 18.179C71.4458 18.5881 71.3265 19.0597 71.3265 19.5938V27H67.6958ZM77.5161 27V13.9091H80.9764V16.2188H81.1298C81.4025 15.4517 81.857 14.8466 82.4934 14.4034C83.1298 13.9602 83.8911 13.7386 84.7775 13.7386C85.6752 13.7386 86.4394 13.9631 87.0701 14.4119C87.7008 14.8551 88.1212 15.4574 88.3315 16.2188H88.4678C88.7349 15.4688 89.2178 14.8693 89.9167 14.4205C90.6212 13.9659 91.4536 13.7386 92.4139 13.7386C93.6354 13.7386 94.6269 14.1278 95.3883 14.9062C96.1553 15.679 96.5389 16.7756 96.5389 18.196V27H92.9167V18.9119C92.9167 18.1847 92.7235 17.6392 92.3371 17.2756C91.9508 16.9119 91.4678 16.7301 90.8883 16.7301C90.2292 16.7301 89.715 16.9403 89.3457 17.3608C88.9764 17.7756 88.7917 18.3239 88.7917 19.0057V27H85.2718V18.8352C85.2718 18.1932 85.0871 17.6818 84.7178 17.3011C84.3542 16.9205 83.8741 16.7301 83.2775 16.7301C82.8741 16.7301 82.5104 16.8324 82.1866 17.0369C81.8684 17.2358 81.6156 17.517 81.4281 17.8807C81.2406 18.2386 81.1468 18.6591 81.1468 19.142V27H77.5161ZM114.875 15.6562H111.143C111.074 15.1733 110.935 14.7443 110.725 14.3693C110.515 13.9886 110.245 13.6648 109.915 13.3977C109.586 13.1307 109.205 12.9261 108.773 12.7841C108.347 12.642 107.884 12.571 107.384 12.571C106.481 12.571 105.694 12.7955 105.023 13.2443C104.353 13.6875 103.833 14.3352 103.464 15.1875C103.094 16.0341 102.91 17.0625 102.91 18.2727C102.91 19.517 103.094 20.5625 103.464 21.4091C103.839 22.2557 104.361 22.8949 105.032 23.3267C105.702 23.7585 106.478 23.9744 107.358 23.9744C107.853 23.9744 108.31 23.9091 108.731 23.7784C109.157 23.6477 109.535 23.4574 109.864 23.2074C110.194 22.9517 110.466 22.642 110.682 22.2784C110.904 21.9148 111.057 21.5 111.143 21.0341L114.875 21.0511C114.779 21.8523 114.537 22.625 114.151 23.3693C113.77 24.108 113.256 24.7699 112.608 25.3551C111.966 25.9347 111.199 26.3949 110.307 26.7358C109.421 27.071 108.418 27.2386 107.299 27.2386C105.742 27.2386 104.35 26.8864 103.123 26.1818C101.901 25.4773 100.935 24.4574 100.225 23.1222C99.5204 21.7869 99.1681 20.1705 99.1681 18.2727C99.1681 16.3693 99.5261 14.75 100.242 13.4148C100.958 12.0795 101.929 11.0625 103.157 10.3636C104.384 9.65909 105.765 9.30682 107.299 9.30682C108.31 9.30682 109.248 9.44886 110.111 9.73295C110.981 10.017 111.75 10.4318 112.421 10.9773C113.091 11.517 113.637 12.179 114.057 12.9631C114.483 13.7472 114.756 14.6449 114.875 15.6562ZM120.202 27H116.248L122.273 9.54545H127.029L133.046 27H129.091L124.719 13.5341H124.583L120.202 27ZM119.955 20.1392H129.296V23.0199H119.955V20.1392ZM132.349 12.5881V9.54545H146.684V12.5881H141.341V27H137.693V12.5881H132.349Z" fill="#C2F041"/>
</svg>
