<svg width="105" height="26" viewBox="0 0 105 26" fill="none" xmlns="http://www.w3.org/2000/svg">
<path d="M11.8122 21.0183C12.0015 20.7667 12.1 20.4997 12.1 20.2192C12.1 19.8234 11.9372 19.4867 11.6206 19.214C11.3227 18.9219 10.9499 18.7767 10.5095 18.7767C10.1938 18.7767 9.85222 18.8635 9.48626 19.0314C9.17993 19.1543 8.87535 19.2151 8.57182 19.2151C8.29595 19.2151 8.07311 19.1626 7.89815 19.0636C7.72502 18.9657 7.5927 18.8189 7.50137 18.6186C7.32943 18.1783 7.24092 17.5902 7.24092 16.8493V10.4836H9.46613C9.97925 10.4836 10.3934 10.3514 10.6951 10.0748C11.0113 9.8031 11.1759 9.47562 11.1759 9.09589C11.1759 8.71668 11.0117 8.38958 10.6964 8.11811C10.395 7.8227 9.98035 7.68082 9.46613 7.68082H7.24092V5.42466C7.24092 4.95625 7.05831 4.57919 6.6945 4.30383C6.33788 4.03391 5.91879 3.9 5.44173 3.9C4.96468 3.9 4.54559 4.03391 4.18897 4.30383L4.18895 4.30379L4.18666 4.30563C3.84313 4.58188 3.67236 4.9586 3.67236 5.42466V7.68082H2.63957C2.10496 7.68082 1.67091 7.82292 1.34968 8.11815C1.05289 8.39092 0.9 8.71821 0.9 9.09589C0.9 9.47357 1.05289 9.80087 1.34968 10.0736L1.34964 10.0737L1.35224 10.0759C1.67354 10.3515 2.10662 10.4836 2.63957 10.4836H3.67236V16.8493C3.67236 18.5799 4.07537 19.8965 4.89906 20.7805C5.724 21.6658 6.9547 22.1 8.57182 22.1C9.13028 22.1 9.57383 22.0726 9.89999 22.0164C10.2498 21.9596 10.6367 21.8279 11.0596 21.6244L11.0597 21.6244L11.0622 21.6231C11.3894 21.4539 11.6416 21.2532 11.8122 21.0183ZM11.8122 21.0183C11.812 21.0186 11.8118 21.0188 11.8116 21.0191L11.7317 20.9589M11.8122 21.0183C11.8123 21.0181 11.8125 21.0178 11.8127 21.0176L11.7317 20.9589M11.7317 20.9589C11.5727 21.1781 11.3343 21.3699 11.0163 21.5342L9.52575 19.1233C9.88347 18.9589 10.2114 18.8767 10.5095 18.8767C10.9268 18.8767 11.2746 19.0137 11.5528 19.2877C11.851 19.5434 12 19.8539 12 20.2192C12 20.4749 11.9106 20.7214 11.7317 20.9589Z" fill="#C2F041" stroke="#C2F041" stroke-width="0.2"/>
<path d="M18.864 18.864C19.888 18.864 20.76 18.584 21.48 18.024C21.832 17.72 22.192 17.568 22.56 17.568C22.896 17.568 23.176 17.688 23.4 17.928C23.64 18.168 23.76 18.448 23.76 18.768C23.76 19.136 23.6 19.48 23.28 19.8C22.752 20.312 22.104 20.688 21.336 20.928C20.584 21.152 19.784 21.256 18.936 21.24C17.688 21.24 16.584 20.984 15.624 20.472C14.664 19.96 13.92 19.248 13.392 18.336C12.864 17.408 12.6 16.352 12.6 15.168C12.6 13.856 12.856 12.704 13.368 11.712C13.88 10.704 14.608 9.928 15.552 9.384C16.496 8.824 17.6 8.544 18.864 8.544C20.752 8.544 22.224 9.112 23.28 10.248C24.336 11.384 24.872 12.896 24.888 14.784C24.888 15.264 24.792 15.624 24.6 15.864C24.408 16.104 24 16.224 23.376 16.224H15.384C15.608 17.008 16.032 17.648 16.656 18.144C17.28 18.624 18.016 18.864 18.864 18.864ZM18.888 10.92C17.96 10.92 17.184 11.208 16.56 11.784C15.936 12.36 15.536 13.128 15.36 14.088H22.344C22.248 13.096 21.92 12.32 21.36 11.76C20.8 11.2 19.976 10.92 18.888 10.92ZM33.3394 8.784C33.7874 8.784 34.1314 8.88 34.3714 9.072C34.6274 9.264 34.7554 9.56 34.7554 9.96C34.7554 10.344 34.6274 10.648 34.3714 10.872C34.1154 11.096 33.7714 11.208 33.3394 11.208C32.3634 11.208 31.6594 11.552 31.2274 12.24C30.8114 12.928 30.6034 13.92 30.6034 15.216V19.776C30.6034 20.128 30.4754 20.424 30.2194 20.664C29.9634 20.888 29.6514 21 29.2834 21C28.8674 21 28.5314 20.888 28.2754 20.664C28.0194 20.44 27.8914 20.144 27.8914 19.776V10.008C27.8914 9.64 28.0274 9.344 28.2994 9.12C28.5874 8.896 28.9154 8.784 29.2834 8.784C29.6354 8.784 29.9394 8.896 30.1954 9.12C30.4674 9.328 30.6034 9.624 30.6034 10.008V10.152C31.2754 9.24 32.1874 8.784 33.3394 8.784ZM52.5133 8.544C54.1613 8.544 55.4493 9.08 56.3773 10.152C57.3213 11.208 57.7933 12.608 57.7933 14.352V19.752C57.7933 20.136 57.6733 20.44 57.4333 20.664C57.1933 20.888 56.8573 21 56.4253 21C56.0253 21 55.6973 20.888 55.4413 20.664C55.1853 20.424 55.0573 20.12 55.0573 19.752V14.304C55.0573 13.264 54.8093 12.448 54.3133 11.856C53.8333 11.248 53.1053 10.944 52.1293 10.944C51.5853 10.944 51.0253 11.112 50.4493 11.448C49.8893 11.784 49.4173 12.264 49.0333 12.888C48.6653 13.512 48.4813 14.232 48.4813 15.048V19.752C48.4813 20.136 48.3613 20.44 48.1213 20.664C47.8973 20.888 47.5693 21 47.1373 21C46.7213 21 46.3853 20.888 46.1293 20.664C45.8733 20.424 45.7453 20.12 45.7453 19.752V14.304C45.7453 13.264 45.4973 12.448 45.0013 11.856C44.5213 11.248 43.7933 10.944 42.8173 10.944C42.3693 10.944 41.8653 11.104 41.3053 11.424C40.7453 11.728 40.2653 12.192 39.8653 12.816C39.4653 13.44 39.2653 14.184 39.2653 15.048V19.8C39.2653 20.184 39.1293 20.48 38.8573 20.688C38.5853 20.896 38.2653 21 37.8973 21C37.5293 21 37.2093 20.896 36.9373 20.688C36.6813 20.48 36.5533 20.184 36.5533 19.8V10.008C36.5533 9.672 36.6813 9.384 36.9373 9.144C37.2093 8.904 37.5293 8.784 37.8973 8.784C38.2973 8.784 38.6253 8.904 38.8813 9.144C39.1373 9.384 39.2653 9.672 39.2653 10.008V10.08C40.3213 9.056 41.6413 8.544 43.2253 8.544C44.2173 8.544 45.0813 8.744 45.8173 9.144C46.5533 9.544 47.1453 10.104 47.5933 10.824C48.2653 9.992 49.0333 9.408 49.8973 9.072C50.7773 8.72 51.6493 8.544 52.5133 8.544Z" fill="#C2F041"/>
<path d="M64.9042 12.9H64.8961L64.8999 13L64.8961 13.1H64.9042C64.9754 14.5771 65.3966 16.0227 66.1405 17.3176C67.0742 18.9429 68.4743 20.2577 70.1635 21.096C71.8527 21.9343 73.7553 22.2585 75.6307 22.0276C76.9905 21.8602 78.2919 21.4065 79.4497 20.7038C80.2347 20.2273 80.2943 19.1811 79.7066 18.509C79.114 17.8314 78.0895 17.7734 77.3264 18.2168C76.5342 18.6771 75.6448 19.039 74.8721 19.1341C73.6481 19.2848 72.6415 18.9221 71.518 18.3646C71.3007 18.2567 71.0543 18.1443 70.7953 18.026L70.7942 18.0255C70.2441 17.7743 69.6354 17.4963 69.1014 17.1724C68.5657 16.8474 68.1178 16.4836 67.8784 16.0669C67.712 15.7773 67.701 15.4286 67.7801 15.0331C67.8594 14.6369 68.0254 14.2098 68.1965 13.7707L68.197 13.7695C68.2836 13.5471 68.3713 13.3221 68.4474 13.1H68.5143L68.4811 13L68.5143 12.9H68.4474C68.3713 12.6779 68.2836 12.4529 68.197 12.2306L68.1965 12.2293C68.0254 11.7902 67.8594 11.3631 67.7801 10.9669C67.701 10.5714 67.712 10.2227 67.8784 9.93314C68.1178 9.51638 68.5657 9.15256 69.1014 8.82761C69.6354 8.50368 70.2441 8.22566 70.7942 7.97448L70.7953 7.97399C71.0543 7.85576 71.3006 7.74327 71.518 7.6354C72.6415 7.07786 73.6481 6.71524 74.8721 6.8659C75.6448 6.96101 76.5342 7.32286 77.3264 7.7832C78.0895 8.22661 79.114 8.1686 79.7066 7.491C80.2943 6.81886 80.2347 5.77273 79.4497 5.29625C78.2919 4.59349 76.9905 4.13976 75.6307 3.97238C73.7553 3.74154 71.8527 4.06572 70.1635 4.90401C68.4743 5.7423 67.0742 7.05712 66.1405 8.68235C65.3966 9.97727 64.9754 11.4229 64.9042 12.9Z" fill="#C2F041" stroke="#C2F041" stroke-width="0.2"/>
<path d="M91.16 8.784C91.56 8.784 91.888 8.904 92.144 9.144C92.4 9.368 92.528 9.664 92.528 10.032V19.752C92.528 20.12 92.4 20.424 92.144 20.664C91.888 20.888 91.56 21 91.16 21C90.776 21 90.464 20.912 90.224 20.736C90 20.544 89.864 20.296 89.816 19.992C89.288 20.408 88.688 20.72 88.016 20.928C87.36 21.136 86.712 21.24 86.072 21.24C84.92 21.24 83.92 20.976 83.072 20.448C82.24 19.92 81.6 19.176 81.152 18.216C80.704 17.256 80.48 16.136 80.48 14.856C80.48 13.624 80.728 12.536 81.224 11.592C81.72 10.632 82.408 9.888 83.288 9.36C84.184 8.816 85.216 8.544 86.384 8.544C86.928 8.544 87.504 8.648 88.112 8.856C88.736 9.064 89.304 9.36 89.816 9.744C89.88 9.44 90.024 9.208 90.248 9.048C90.488 8.872 90.792 8.784 91.16 8.784ZM86.36 18.816C87.112 18.816 87.8 18.656 88.424 18.336C89.064 18.016 89.52 17.56 89.792 16.968V12.816C89.504 12.24 89.056 11.792 88.448 11.472C87.856 11.136 87.232 10.968 86.576 10.968C85.568 10.968 84.752 11.336 84.128 12.072C83.52 12.792 83.216 13.728 83.216 14.88C83.216 16.064 83.504 17.016 84.08 17.736C84.656 18.456 85.416 18.816 86.36 18.816ZM101.389 18.72C101.677 18.576 101.941 18.504 102.181 18.504C102.517 18.504 102.797 18.624 103.021 18.864C103.261 19.088 103.381 19.36 103.381 19.68C103.381 19.904 103.309 20.12 103.165 20.328C103.037 20.52 102.845 20.688 102.589 20.832C102.253 21.008 101.949 21.12 101.677 21.168C101.421 21.216 101.069 21.24 100.621 21.24C98.0451 21.24 96.7571 19.736 96.7571 16.728V11.064H95.8451C95.4291 11.064 95.1011 10.952 94.8611 10.728C94.6371 10.504 94.5251 10.24 94.5251 9.936C94.5251 9.632 94.6371 9.368 94.8611 9.144C95.1011 8.904 95.4291 8.784 95.8451 8.784H96.7571V6.72C96.7571 6.336 96.8851 6.032 97.1411 5.808C97.4131 5.584 97.7331 5.472 98.1011 5.472C98.4691 5.472 98.7891 5.584 99.0611 5.808C99.3331 6.032 99.4691 6.336 99.4691 6.72V8.784H101.341C101.741 8.784 102.053 8.904 102.277 9.144C102.517 9.368 102.637 9.632 102.637 9.936C102.637 10.24 102.517 10.504 102.277 10.728C102.053 10.952 101.741 11.064 101.341 11.064H99.4691V16.728C99.4691 17.384 99.5411 17.912 99.6851 18.312C99.8451 18.696 100.157 18.888 100.621 18.888C100.877 18.888 101.133 18.832 101.389 18.72Z" fill="#C2F041"/>
</svg>
