<svg width="145" height="24" viewBox="0 0 145 24" fill="none" xmlns="http://www.w3.org/2000/svg">
<g clip-path="url(#clip0_2168_721)">
<path d="M16.3325 4.44715C15.2015 2.18512 14.636 1.05411 13.8964 0.681011C13.1883 0.323778 12.3526 0.323778 11.6444 0.681009C10.9048 1.05411 10.3393 2.18512 9.2083 4.44715C8.90139 5.06098 8.74793 5.36789 8.53873 5.60787C8.26915 5.91711 7.92762 6.15526 7.54425 6.30131C7.24674 6.41465 6.91192 6.45185 6.24227 6.52625C3.91016 6.78538 2.74411 6.91494 2.16935 7.38944C1.42768 8.00174 1.10301 8.98521 1.33437 9.91874C1.51366 10.6422 2.38641 11.4526 4.13193 13.0735C4.67568 13.5784 4.94756 13.8308 5.12524 14.1182C5.40026 14.5631 5.52886 15.0829 5.49292 15.6047C5.4697 15.9418 5.34867 16.2867 5.10662 16.9766C4.31991 19.2187 3.92656 20.3397 4.07482 21.0286C4.30588 22.1022 5.21049 22.8993 6.30462 22.9934C7.00665 23.0537 8.06928 22.5224 10.1946 21.4598L10.9816 21.0663C11.6375 20.7383 11.9654 20.5744 12.3094 20.5098C12.6141 20.4527 12.9268 20.4527 13.2314 20.5098C13.5754 20.5744 13.9034 20.7383 14.5593 21.0663L15.3463 21.4598C17.4716 22.5224 18.5342 23.0537 19.2362 22.9934C20.3303 22.8993 21.235 22.1022 21.466 21.0286C21.6143 20.3397 21.2209 19.2187 20.4342 16.9766C20.1922 16.2867 20.0711 15.9418 20.0479 15.6047C20.012 15.0829 20.1406 14.5631 20.4156 14.1182C20.5933 13.8308 20.8652 13.5784 21.4089 13.0735C23.1544 11.4526 24.0272 10.6422 24.2065 9.91874C24.4378 8.98521 24.1132 8.00174 23.3715 7.38944C22.7967 6.91494 21.6307 6.78538 19.2986 6.52625C18.6289 6.45185 18.2941 6.41465 17.9966 6.30131C17.6132 6.15526 17.2717 5.91711 17.0021 5.60787C16.7929 5.36788 16.6395 5.06097 16.3325 4.44715Z" fill="#D3A2FB"/>
</g>
<g clip-path="url(#clip1_2168_721)">
<path d="M46.3325 4.44715C45.2015 2.18512 44.636 1.05411 43.8964 0.681011C43.1883 0.323778 42.3526 0.323778 41.6444 0.681009C40.9048 1.05411 40.3393 2.18512 39.2083 4.44715C38.9014 5.06098 38.7479 5.36789 38.5387 5.60787C38.2692 5.91711 37.9276 6.15526 37.5443 6.30131C37.2467 6.41465 36.9119 6.45185 36.2423 6.52625C33.9102 6.78538 32.7441 6.91494 32.1694 7.38944C31.4277 8.00174 31.103 8.98521 31.3344 9.91874C31.5137 10.6422 32.3864 11.4526 34.1319 13.0735C34.6757 13.5784 34.9476 13.8308 35.1252 14.1182C35.4003 14.5631 35.5289 15.0829 35.4929 15.6047C35.4697 15.9418 35.3487 16.2867 35.1066 16.9766C34.3199 19.2187 33.9266 20.3397 34.0748 21.0286C34.3059 22.1022 35.2105 22.8993 36.3046 22.9934C37.0067 23.0537 38.0693 22.5224 40.1946 21.4598L40.9816 21.0663C41.6375 20.7383 41.9654 20.5744 42.3094 20.5098C42.6141 20.4527 42.9268 20.4527 43.2314 20.5098C43.5754 20.5744 43.9034 20.7383 44.5593 21.0663L45.3463 21.4598C47.4716 22.5224 48.5342 23.0537 49.2362 22.9934C50.3303 22.8993 51.235 22.1022 51.466 21.0286C51.6143 20.3397 51.2209 19.2187 50.4342 16.9766C50.1922 16.2867 50.0711 15.9418 50.0479 15.6047C50.012 15.0829 50.1406 14.5631 50.4156 14.1182C50.5933 13.8308 50.8652 13.5784 51.4089 13.0735C53.1544 11.4526 54.0272 10.6422 54.2065 9.91874C54.4378 8.98521 54.1132 8.00174 53.3715 7.38944C52.7967 6.91494 51.6307 6.78538 49.2986 6.52625C48.6289 6.45185 48.2941 6.41465 47.9966 6.30131C47.6132 6.15526 47.2717 5.91711 47.0021 5.60787C46.7929 5.36788 46.6395 5.06097 46.3325 4.44715Z" fill="#D3A2FB"/>
</g>
<g clip-path="url(#clip2_2168_721)">
<path d="M76.3325 4.44715C75.2015 2.18512 74.636 1.05411 73.8964 0.681011C73.1883 0.323778 72.3526 0.323778 71.6444 0.681009C70.9048 1.05411 70.3393 2.18512 69.2083 4.44715C68.9014 5.06098 68.7479 5.36789 68.5387 5.60787C68.2692 5.91711 67.9276 6.15526 67.5443 6.30131C67.2467 6.41465 66.9119 6.45185 66.2423 6.52625C63.9102 6.78538 62.7441 6.91494 62.1694 7.38944C61.4277 8.00174 61.103 8.98521 61.3344 9.91874C61.5137 10.6422 62.3864 11.4526 64.1319 13.0735C64.6757 13.5784 64.9476 13.8308 65.1252 14.1182C65.4003 14.5631 65.5289 15.0829 65.4929 15.6047C65.4697 15.9418 65.3487 16.2867 65.1066 16.9766C64.3199 19.2187 63.9266 20.3397 64.0748 21.0286C64.3059 22.1022 65.2105 22.8993 66.3046 22.9934C67.0067 23.0537 68.0693 22.5224 70.1946 21.4598L70.9816 21.0663C71.6375 20.7383 71.9654 20.5744 72.3094 20.5098C72.6141 20.4527 72.9268 20.4527 73.2314 20.5098C73.5754 20.5744 73.9034 20.7383 74.5593 21.0663L75.3463 21.4598C77.4716 22.5224 78.5342 23.0537 79.2362 22.9934C80.3303 22.8993 81.235 22.1022 81.466 21.0286C81.6143 20.3397 81.2209 19.2187 80.4342 16.9766C80.1922 16.2867 80.0711 15.9418 80.0479 15.6047C80.012 15.0829 80.1406 14.5631 80.4156 14.1182C80.5933 13.8308 80.8652 13.5784 81.4089 13.0735C83.1544 11.4526 84.0272 10.6422 84.2065 9.91874C84.4378 8.98521 84.1132 8.00174 83.3715 7.38944C82.7967 6.91494 81.6307 6.78538 79.2986 6.52625C78.6289 6.45185 78.2941 6.41465 77.9966 6.30131C77.6132 6.15526 77.2717 5.91711 77.0021 5.60787C76.7929 5.36788 76.6395 5.06097 76.3325 4.44715Z" fill="#D3A2FB"/>
</g>
<g clip-path="url(#clip3_2168_721)">
<path d="M106.332 4.44715C105.201 2.18512 104.636 1.05411 103.896 0.681011C103.188 0.323778 102.353 0.323778 101.644 0.681009C100.905 1.05411 100.339 2.18512 99.2083 4.44715C98.9014 5.06098 98.7479 5.36789 98.5387 5.60787C98.2692 5.91711 97.9276 6.15526 97.5443 6.30131C97.2467 6.41465 96.9119 6.45185 96.2423 6.52625C93.9102 6.78538 92.7441 6.91494 92.1694 7.38944C91.4277 8.00174 91.103 8.98521 91.3344 9.91874C91.5137 10.6422 92.3864 11.4526 94.1319 13.0735C94.6757 13.5784 94.9476 13.8308 95.1252 14.1182C95.4003 14.5631 95.5289 15.0829 95.4929 15.6047C95.4697 15.9418 95.3487 16.2867 95.1066 16.9766C94.3199 19.2187 93.9266 20.3397 94.0748 21.0286C94.3059 22.1022 95.2105 22.8993 96.3046 22.9934C97.0067 23.0537 98.0693 22.5224 100.195 21.4598L100.982 21.0663C101.637 20.7383 101.965 20.5744 102.309 20.5098C102.614 20.4527 102.927 20.4527 103.231 20.5098C103.575 20.5744 103.903 20.7383 104.559 21.0663L105.346 21.4598C107.472 22.5224 108.534 23.0537 109.236 22.9934C110.33 22.8993 111.235 22.1022 111.466 21.0286C111.614 20.3397 111.221 19.2187 110.434 16.9766C110.192 16.2867 110.071 15.9418 110.048 15.6047C110.012 15.0829 110.141 14.5631 110.416 14.1182C110.593 13.8308 110.865 13.5784 111.409 13.0735C113.154 11.4526 114.027 10.6422 114.206 9.91874C114.438 8.98521 114.113 8.00174 113.371 7.38944C112.797 6.91494 111.631 6.78538 109.299 6.52625C108.629 6.45185 108.294 6.41465 107.997 6.30131C107.613 6.15526 107.272 5.91711 107.002 5.60787C106.793 5.36788 106.639 5.06097 106.332 4.44715Z" fill="#D3A2FB"/>
</g>
<g clip-path="url(#clip4_2168_721)">
<path d="M136.332 4.44715C135.201 2.18512 134.636 1.05411 133.896 0.681011C133.188 0.323778 132.353 0.323778 131.644 0.681009C130.905 1.05411 130.339 2.18512 129.208 4.44715C128.901 5.06098 128.748 5.36789 128.539 5.60787C128.269 5.91711 127.928 6.15526 127.544 6.30131C127.247 6.41465 126.912 6.45185 126.242 6.52625C123.91 6.78538 122.744 6.91494 122.169 7.38944C121.428 8.00174 121.103 8.98521 121.334 9.91874C121.514 10.6422 122.386 11.4526 124.132 13.0735C124.676 13.5784 124.948 13.8308 125.125 14.1182C125.4 14.5631 125.529 15.0829 125.493 15.6047C125.47 15.9418 125.349 16.2867 125.107 16.9766C124.32 19.2187 123.927 20.3397 124.075 21.0286C124.306 22.1022 125.21 22.8993 126.305 22.9934C127.007 23.0537 128.069 22.5224 130.195 21.4598L130.982 21.0663C131.637 20.7383 131.965 20.5744 132.309 20.5098C132.614 20.4527 132.927 20.4527 133.231 20.5098C133.575 20.5744 133.903 20.7383 134.559 21.0663L135.346 21.4598C137.472 22.5224 138.534 23.0537 139.236 22.9934C140.33 22.8993 141.235 22.1022 141.466 21.0286C141.614 20.3397 141.221 19.2187 140.434 16.9766C140.192 16.2867 140.071 15.9418 140.048 15.6047C140.012 15.0829 140.141 14.5631 140.416 14.1182C140.593 13.8308 140.865 13.5784 141.409 13.0735C143.154 11.4526 144.027 10.6422 144.206 9.91874C144.438 8.98521 144.113 8.00174 143.371 7.38944C142.797 6.91494 141.631 6.78538 139.299 6.52625C138.629 6.45185 138.294 6.41465 137.997 6.30131C137.613 6.15526 137.272 5.91711 137.002 5.60787C136.793 5.36788 136.639 5.06097 136.332 4.44715Z" fill="#E8E8E8"/>
<path d="M130.195 21.4597L130.981 21.0662C131.637 20.7383 131.965 20.5743 132.309 20.5097C132.614 20.4526 132.927 20.4526 133.231 20.5097C133.575 20.5743 133.903 20.7383 134.559 21.0662L135.346 21.4597C137.471 22.5224 138.534 23.0537 139.236 22.9933C140.33 22.8992 141.235 22.1021 141.466 21.0285C141.614 20.3396 141.221 19.2186 140.434 16.9765C140.192 16.2866 140.071 15.9417 140.048 15.6046C140.012 15.0829 140.14 14.563 140.416 14.1181C140.416 14.1181 137.77 11 132.77 11C127.77 11 125.125 14.1181 125.125 14.1181C125.4 14.563 125.529 15.0829 125.493 15.6046C125.47 15.9417 125.349 16.2866 125.107 16.9765C124.32 19.2186 123.927 20.3396 124.075 21.0285C124.306 22.1021 125.21 22.8992 126.305 22.9933C127.007 23.0537 128.069 22.5224 130.195 21.4597Z" fill="#D3A2FB"/>
</g>
<defs>
<clipPath id="clip0_2168_721">
<rect width="24" height="24" fill="white" transform="translate(0.770386)"/>
</clipPath>
<clipPath id="clip1_2168_721">
<rect width="24" height="24" fill="white" transform="translate(30.7704)"/>
</clipPath>
<clipPath id="clip2_2168_721">
<rect width="24" height="24" fill="white" transform="translate(60.7704)"/>
</clipPath>
<clipPath id="clip3_2168_721">
<rect width="24" height="24" fill="white" transform="translate(90.7704)"/>
</clipPath>
<clipPath id="clip4_2168_721">
<rect width="24" height="24" fill="white" transform="translate(120.77)"/>
</clipPath>
</defs>
</svg>
