<svg width="36" height="36" viewBox="0 0 36 36" fill="none" xmlns="http://www.w3.org/2000/svg">
<path d="M27.2448 16.2613L19.0868 16.2609C18.7266 16.2609 18.4346 16.5528 18.4346 16.9131V19.5191C18.4346 19.8793 18.7266 20.1713 19.0868 20.1713H23.6809C23.1778 21.4768 22.2389 22.5701 21.041 23.2648L22.9999 26.6558C26.1422 24.8385 28 21.6499 28 18.0804C28 17.5722 27.9625 17.2088 27.8876 16.7997C27.8307 16.4889 27.5608 16.2613 27.2448 16.2613Z" fill="#167EE6"/>
<path d="M17.9998 24.0871C15.7515 24.0871 13.7888 22.8587 12.7347 21.041L9.34375 22.9955C11.0694 25.9862 14.302 28.0001 17.9998 28.0001C19.8138 28.0001 21.5254 27.5117 22.9999 26.6606V26.6559L21.041 23.2649C20.1449 23.7846 19.108 24.0871 17.9998 24.0871Z" fill="#12B347"/>
<path d="M23.0001 26.6603V26.6557L21.0412 23.2646C20.1452 23.7843 19.1083 24.0868 18 24.0868V27.9998C19.814 27.9998 21.5257 27.5114 23.0001 26.6603Z" fill="#0F993E"/>
<path d="M11.9131 18C11.9131 16.8918 12.2156 15.8551 12.7352 14.9591L9.34421 13.0046C8.48837 14.4744 8 16.1814 8 18C8 19.8186 8.48837 21.5255 9.34421 22.9954L12.7352 21.0409C12.2156 20.1449 11.9131 19.1082 11.9131 18Z" fill="#FFD500"/>
<path d="M17.9988 11.9131C19.4649 11.9131 20.8116 12.434 21.8634 13.3005C22.1229 13.5143 22.5001 13.4988 22.7378 13.2611L24.5843 11.4147C24.854 11.145 24.8348 10.7035 24.5467 10.4536C22.7843 8.92473 20.4913 8 17.9988 8C14.3011 8 11.0684 10.0139 9.34277 13.0047L12.7337 14.9591C13.7878 13.1414 15.7505 11.9131 17.9988 11.9131Z" fill="#FF4B26"/>
<path d="M21.8646 13.3005C22.1241 13.5143 22.5013 13.4988 22.739 13.2611L24.5855 11.4147C24.8552 11.145 24.8359 10.7035 24.5479 10.4536C22.7855 8.92469 20.4925 8 18 8V11.9131C19.4661 11.9131 20.8128 12.434 21.8646 13.3005Z" fill="#D93F21"/>
</svg>
